<?xml version="1.0" encoding="utf-8"?>
<!-- Generator: Adobe Illustrator 16.0.0, SVG Export Plug-In . SVG Version: 6.00 Build 0)  -->
<!DOCTYPE svg PUBLIC "-//W3C//DTD SVG 1.1//EN" "http://www.w3.org/Graphics/SVG/1.1/DTD/svg11.dtd">
<svg version="1.1" id="Layer_1" xmlns="http://www.w3.org/2000/svg" xmlns:xlink="http://www.w3.org/1999/xlink" x="0px" y="0px"
	 width="40px" height="40px" viewBox="0 0 40 40" enable-background="new 0 0 40 40" xml:space="preserve">
<g>
	<g>
		<path fill="none" stroke="#3366FF" stroke-width="1.4" stroke-linecap="round" stroke-miterlimit="10" d="M14.281,20.453
			c-0.367,0.74-1.129,1.249-2.01,1.249c-1.235,0-2.239-1.003-2.239-2.24c0-1.237,1.004-2.24,2.239-2.24
			c0.88,0,1.641,0.507,2.009,1.244"/>
		
			<line fill="none" stroke="#3366FF" stroke-width="1.4" stroke-linecap="round" stroke-miterlimit="10" x1="22.303" y1="14.495" x2="14.28" y2="18.477"/>
		
			<line fill="none" stroke="#3366FF" stroke-width="1.4" stroke-linecap="round" stroke-miterlimit="10" x1="14.28" y1="20.453" x2="22.391" y2="24.462"/>
	</g>
	<path fill="none" stroke="#3366FF" stroke-width="1.4" stroke-linecap="round" stroke-miterlimit="10" d="M22.343,14.476
		c-0.36-0.741-0.297-1.655,0.242-2.352c0.755-0.978,2.163-1.159,3.142-0.402c0.979,0.756,1.157,2.164,0.401,3.142
		c-0.537,0.696-1.401,0.988-2.211,0.828"/>
	<path fill="none" stroke="#3366FF" stroke-width="1.4" stroke-linecap="round" stroke-miterlimit="10" d="M22.498,24.447
		c0.438-0.7,1.246-1.133,2.122-1.045c1.229,0.121,2.131,1.218,2.009,2.449c-0.122,1.229-1.219,2.129-2.451,2.008
		c-0.871-0.084-1.582-0.664-1.875-1.437"/>
</g>
<g>
	<path fill="#E1E1E1" d="M20,0.799c10.588,0,19.199,8.613,19.199,19.201S30.588,39.199,20,39.199
		C9.413,39.199,0.799,30.588,0.799,20C0.799,9.413,9.413,0.799,20,0.799 M20,0C8.954,0,0,8.954,0,20s8.954,20,20,20s20-8.954,20-20
		S31.046,0,20,0L20,0z"/>
</g>
</svg>
